<?xml version="1.0" encoding="utf-8"?>
<!-- Generator: Adobe Illustrator 27.4.0, SVG Export Plug-In . SVG Version: 6.00 Build 0)  -->
<svg version="1.1" id="Layer_1" xmlns="http://www.w3.org/2000/svg" xmlns:xlink="http://www.w3.org/1999/xlink" x="0px" y="0px"
	 viewBox="0 0 559 1920" style="enable-background:new 0 0 559 1920;" xml:space="preserve">
<style type="text/css">
	.st0{fill:none;stroke:#000000;stroke-width:19;stroke-miterlimit:10;}
	.st1{fill:none;stroke:#000000;stroke-width:19;stroke-miterlimit:10;stroke-dasharray:59.565,59.565;}
	.st2{fill:#F4524D;}
</style>
<g>
	<g>
		<path class="st0" d="M232.68,1901.5c5.32-5.24,12.49-12.4,21.09-21.33"/>
		<path class="st1" d="M294,1836.25c99.87-114.53,263.72-345.45,217.78-597.29c-7.22-39.6-45.76-250.85-180.59-292.58
			c-7-2.17-79.34-23.37-131.34,18.35c-56.46,45.29-66.53,146.79-19.31,196.05c51.11,53.31,160.26,35.96,209.57-16.42
			c72.86-77.41,20.47-237.15-46.36-440.91c-20.48-62.44-41.55-116.1-59.73-158.75"/>
		<path class="st0" d="M272.12,517.39c-4.41-9.92-8.57-19.04-12.4-27.32"/>
	</g>
</g>
<polygon class="st2" points="351.56,215.34 82.93,0 7.99,336.03 276.62,551.37 "/>
</svg>
